<svg width="68" height="41" viewBox="0 0 68 41" fill="none" xmlns="http://www.w3.org/2000/svg">
<ellipse cx="44.3025" cy="14.1275" rx="4.28105" ry="8.5621" fill="#EA801F" fill-opacity="0.5"/>
<path d="M33.5996 36.175C45.9007 17.5524 53.1686 28.4779 65.7075 23.5459" stroke="#EE5858" stroke-width="0.428105"/>
<path d="M33.5996 36.175C21.2985 17.5524 14.0306 28.4779 1.49175 23.5459" stroke="#EE5858" stroke-width="0.428105"/>
<path d="M33.019 38.4528C33.9764 39.0747 34.9338 39.6966 35.8911 40.3184C36.1613 39.7513 36.4331 39.21 36.7066 38.6938C38.4083 35.5392 40.5647 32.6163 43.504 30.7228C46.6468 28.6433 50.3451 28.8994 54.0979 29.3154C56.3453 29.5244 58.7329 29.7168 61.1858 29.5083C62.5648 29.395 63.9481 29.15 65.2932 28.7681C65.9486 28.5818 66.5586 28.3782 67.1989 28.1324C66.7749 27.0725 66.351 26.0125 65.927 24.9525C65.3894 25.177 64.8797 25.3642 64.3317 25.5369C63.207 25.8913 62.052 26.1316 60.866 26.27C58.758 26.5227 56.5795 26.3921 54.2736 26.3238C50.3985 26.1229 45.9414 26.9697 42.584 29.2785C39.3312 31.3818 36.7881 34.15 34.272 36.999C33.8638 37.462 33.4463 37.9462 33.019 38.4528Z" fill="#EE5858"/>
<path d="M34.1802 38.4528C33.2228 39.0747 32.2655 39.6966 31.3081 40.3184C31.0206 39.7625 30.7443 39.2249 30.4721 38.7081C29.7576 37.3731 29.0293 36.111 28.1103 34.9408C26.8338 33.3182 25.4041 31.8131 23.6953 30.7228C20.5524 28.6433 16.8542 28.8994 13.1013 29.3154C10.8539 29.5244 8.46629 29.7168 6.01347 29.5083C4.6344 29.395 3.25114 29.15 1.90602 28.7681C1.25065 28.5818 0.64064 28.3782 0.000301361 28.1324C0.424286 27.0725 0.848269 26.0125 1.27225 24.9525C1.80979 25.177 2.31953 25.3642 2.86748 25.5369C3.99222 25.8913 5.14725 26.1316 6.33322 26.27C8.44123 26.5227 10.6197 26.3921 12.9257 26.3238C16.8008 26.1229 21.2579 26.9697 24.6152 29.2785C26.5103 30.4887 28.1901 31.9446 29.7226 33.5329C30.8205 34.6764 31.8907 35.7787 32.9476 36.9847C33.3572 37.4472 33.7702 37.935 34.1802 38.4528Z" fill="#EE5858"/>
<ellipse cx="19.6869" cy="13.6992" rx="4.92321" ry="8.9902" fill="#4C00FF" fill-opacity="0.5"/>
<ellipse cx="25.0389" cy="15.84" rx="4.28105" ry="8.13399" fill="#A096F8" fill-opacity="0.5"/>
<ellipse cx="34.4551" cy="12.8431" rx="6.84968" ry="12.8431" fill="#EE4267" fill-opacity="0.5"/>
<path d="M1.49219 23.547L10.4824 20.5503" stroke="#EE5858" stroke-width="0.428105"/>
<path d="M65.7075 23.5464C65.663 23.5867 56.2707 21.2803 51.5801 20.1221" stroke="#EE5858" stroke-width="0.428105"/>
<line x1="32.3164" y1="38.1014" x2="34.4569" y2="38.1014" stroke="#EE5858" stroke-width="2.56863"/>
</svg>
